<svg width="16" height="16" viewBox="0 0 16 16" fill="none" xmlns="http://www.w3.org/2000/svg">
<path d="M1.71997 12.6734L1.70664 12.6867C1.52664 12.2934 1.4133 11.8467 1.36664 11.3534C1.4133 11.8401 1.53997 12.2801 1.71997 12.6734Z" fill="white"/>
<path d="M6 6.92004C6.87629 6.92004 7.58666 6.20966 7.58666 5.33337C7.58666 4.45708 6.87629 3.7467 6 3.7467C5.1237 3.7467 4.41333 4.45708 4.41333 5.33337C4.41333 6.20966 5.1237 6.92004 6 6.92004Z" fill="white"/>
<path d="M10.7933 1.33337H5.20665C2.77998 1.33337 1.33331 2.78004 1.33331 5.20671V10.7934C1.33331 11.52 1.45998 12.1534 1.70665 12.6867C2.27998 13.9534 3.50665 14.6667 5.20665 14.6667H10.7933C13.22 14.6667 14.6666 13.22 14.6666 10.7934V9.26671V5.20671C14.6666 2.78004 13.22 1.33337 10.7933 1.33337ZM13.58 8.33337C13.06 7.88671 12.22 7.88671 11.7 8.33337L8.92664 10.7134C8.40664 11.16 7.56664 11.16 7.04664 10.7134L6.81998 10.5267C6.34664 10.1134 5.59331 10.0734 5.05998 10.4334L2.56665 12.1067C2.41998 11.7334 2.33331 11.3 2.33331 10.7934V5.20671C2.33331 3.32671 3.32665 2.33337 5.20665 2.33337H10.7933C12.6733 2.33337 13.6666 3.32671 13.6666 5.20671V8.40671L13.58 8.33337Z" fill="white"/>
</svg>
