<svg width="50" height="26" viewBox="0 0 50 26" fill="none" xmlns="http://www.w3.org/2000/svg">
<path d="M48.9747 20.803C42.5954 15.6252 37.4322 9.33644 33.0916 2.38832C32.7611 1.86068 32.349 1.49788 31.8989 1.27164C30.3669 -0.0292641 28.0293 -0.423575 26.1418 1.3379C22.4872 4.74611 18.7695 8.00968 14.8021 11.0511C14.3117 11.4268 13.8858 11.8623 13.5465 12.339C13.2839 12.4392 13.031 12.5766 12.8055 12.7697C9.46518 15.6382 5.55277 18.4816 1.17494 21.2224C0.00332071 21.956 -0.351398 23.5001 0.383088 24.6734C0.858201 25.4313 1.67268 25.8474 2.50655 25.8474C2.96066 25.8474 3.41961 25.7246 3.83251 25.4652C7.68512 23.0525 11.1984 20.5557 14.3181 18.021C15.674 19.0755 17.7037 19.4706 19.1105 18.3911C22.9857 15.4224 26.6832 12.3229 30.2877 9.05849C34.369 15.0095 39.1032 20.4862 44.7262 25.0515C47.7061 27.4699 51.9838 23.2464 48.9747 20.803Z" fill="white"/>
<path d="M10.9964 12.5386C13.3807 12.5386 15.3136 10.6057 15.3136 8.22137C15.3136 5.83703 13.3807 3.90414 10.9964 3.90414C8.61202 3.90414 6.67913 5.83703 6.67913 8.22137C6.67913 10.6057 8.61202 12.5386 10.9964 12.5386Z" fill="white"/>
</svg>
