<svg width="34" height="50" viewBox="0 0 34 50" fill="none" xmlns="http://www.w3.org/2000/svg">
<path d="M30.5009 25.8879C30.2649 19.1701 28.2789 12.6565 24.2626 7.2208C23.9019 6.73372 23.491 6.30271 23.0432 5.93364C21.6715 3.81208 19.9375 1.95332 17.6837 0.743994C14.3327 -1.05368 10.6027 0.522215 9.71554 4.22886C8.88533 7.70034 9.51301 11.966 9.47116 15.4944C9.44522 17.8135 9.41844 20.1342 9.39249 22.4533C11.6136 21.8984 13.9704 21.6557 16.461 21.7511C16.4878 19.4053 16.5137 17.0611 16.5413 14.7169C18.2076 17.4771 19.3006 20.4338 19.7182 23.6392C13.5243 22.5462 7.29521 23.3078 1.99593 27.1316C-0.92821 29.2406 1.88714 34.1423 4.84475 32.0082C9.78835 28.4405 15.2667 28.1819 21.0255 29.7034C21.3276 29.7837 21.6088 29.8021 21.8799 29.7954C24.9949 32.1831 30.6783 30.906 30.5009 25.8879Z" fill="white"/>
<path d="M9.29119 31.4349C9.23344 36.484 9.17653 41.5355 9.11795 46.5862C9.0669 51.1398 16.127 51.1373 16.1781 46.5862L16.0517 30.2005C13.5996 30.121 11.3659 30.5353 9.29119 31.4349Z" fill="white"/>
<path d="M27.5927 31.8784C24.4718 31.8784 21.9444 34.4076 21.9444 37.525C21.9444 40.645 24.4727 43.1741 27.5927 43.1741C30.7101 43.1741 33.2376 40.645 33.2376 37.525C33.2376 34.4076 30.7101 31.8784 27.5927 31.8784Z" fill="white"/>
</svg>
