<svg width="50" height="26" viewBox="0 0 50 26" fill="none" xmlns="http://www.w3.org/2000/svg">
<path d="M45.8641 9.2199C48.1483 9.2199 50 7.36821 50 5.08403C50 2.79985 48.1483 0.948151 45.8641 0.948151C43.58 0.948151 41.7283 2.79985 41.7283 5.08403C41.7283 7.36821 43.58 9.2199 45.8641 9.2199Z" fill="white"/>
<path d="M9.49227 21.7253C13.7371 19.6497 17.9819 17.5761 22.2277 15.5006C23.6131 17.5639 26.0948 17.7828 28.1683 16.717C30.6928 15.4202 33.2204 14.1213 35.7428 12.8244C35.8487 15.1962 35.9505 17.57 36.0533 19.9418C36.1846 22.9183 40.7989 22.7177 40.6676 19.7413C40.5281 16.5389 40.3907 13.3364 40.2502 10.135C41.3201 8.73028 41.3496 6.5295 40.4212 5.09218C39.044 2.96571 36.5307 2.73158 34.4307 3.80856C30.7743 5.68767 27.1178 7.56576 23.4634 9.44385C23.0471 9.65762 22.702 9.95282 22.4211 10.2979C17.2774 12.8122 12.1348 15.3265 6.99018 17.8418C4.31911 19.1458 6.84461 23.018 9.49227 21.7253Z" fill="white"/>
<path d="M49.3526 22.3777H0V25.0519H49.3526V22.3777Z" fill="white"/>
</svg>
