<svg width="50" height="40" viewBox="0 0 50 40" fill="none" xmlns="http://www.w3.org/2000/svg">
<path d="M44.3795 39.4002C47.4837 39.4002 50 36.8838 50 33.7797C50 30.6756 47.4837 28.1592 44.3795 28.1592C41.2754 28.1592 38.759 30.6756 38.759 33.7797C38.759 36.8838 41.2754 39.4002 44.3795 39.4002Z" fill="white"/>
<path d="M32.0872 27.8435H18.4901C17.9398 27.8435 17.4101 27.9262 16.9056 28.0719V3.99729C16.9056 2.11959 15.384 0.598007 13.5072 0.598007C11.6295 0.598007 10.1079 2.11959 10.1079 3.99729V33.9074C7.61601 33.9074 5.1223 33.9074 2.6304 33.9074C-0.876799 33.9074 -0.876799 39.3462 2.6304 39.3462C7.66457 39.3462 12.6987 39.3462 17.7329 39.3462C17.9811 39.3795 18.2338 39.402 18.491 39.402H32.089C35.2788 39.402 37.866 36.8147 37.866 33.6241C37.8633 30.4325 35.2761 27.8435 32.0872 27.8435Z" fill="white"/>
</svg>
