<svg width="24" height="50" viewBox="0 0 24 50" fill="none" xmlns="http://www.w3.org/2000/svg">
<path d="M17.1788 8.21457C19.4472 8.21457 21.2861 6.37567 21.2861 4.10728C21.2861 1.83889 19.4472 0 17.1788 0C14.9104 0 13.0715 1.83889 13.0715 4.10728C13.0715 6.37567 14.9104 8.21457 17.1788 8.21457Z" fill="white"/>
<path d="M4.4354 12.1527C3.52089 12.5591 2.64256 12.9798 1.81303 13.3962C-0.699969 14.6582 1.50847 18.4188 4.01474 17.1611C4.16197 17.0879 4.31172 17.0206 4.45895 16.9491C4.38492 15.3623 4.35463 13.7588 4.4354 12.1527Z" fill="white"/>
<path d="M22.861 12.1494C22.9939 11.3956 22.7003 10.6232 21.7471 10.2144C18.1252 8.65878 13.9809 8.99446 10.0352 10.0974C10.036 10.2573 10.0284 10.418 10.0032 10.5803C9.79792 11.9029 9.75502 13.0429 9.7811 14.4049L17.1796 14.1416C17.1796 14.1416 18.2161 14.4142 17.4438 14.7827C16.356 14.8306 9.17704 15.1764 9.17704 15.1764C9.0887 13.3508 9.08281 11.5218 9.36044 9.73061C9.78615 6.98036 5.58548 5.79916 5.15557 8.57128C4.59862 12.1603 4.86784 15.7191 5.07817 19.3249C5.16903 20.9058 6.88194 22.1324 8.35844 21.2078C9.4227 20.5406 10.4483 19.7919 11.4259 18.985L11.4225 20.3942L11.3922 35.5925V47.6485C11.3922 48.9467 12.3412 50 13.6764 50C15.0099 50 16.0935 48.9467 16.0935 47.6485V30.4168H18.227C18.227 34.4542 18.227 43.6691 18.227 47.7074C18.227 50.5191 22.5884 50.5191 22.5884 47.7074C22.5884 43.6691 22.5884 39.6317 22.5884 35.5959C23.4777 17.3882 23.481 17.4429 22.861 12.1494Z" fill="white"/>
</svg>
