<svg width="171" height="198" viewBox="0 0 171 198" fill="none" xmlns="http://www.w3.org/2000/svg">
<g filter="url(#filter0_d_2_1122)">
<rect x="24" y="60" width="67" height="38" rx="10" fill="white"/>
</g>
<path d="M100.2 68.46C100.2 68.46 99.08 68.68 97.8 68.68V84H99.16L99.92 81.36C99.92 81.36 100.66 84.28 104.18 84.28C107.5 84.28 109.74 81.86 109.74 78.46C109.74 75.06 107.5 72.62 104.18 72.62C101.18 72.62 100.2 74.96 100.2 74.96V68.46ZM103.42 82.5C101.02 82.5 99.7 80.66 99.7 78.46C99.7 76.26 101.02 74.4 103.42 74.4C105.78 74.4 107.18 76.06 107.18 78.46C107.18 80.86 105.78 82.5 103.42 82.5ZM122.241 81.34L122.361 76.68C122.421 74.4 120.801 72.62 117.481 72.62C113.021 72.62 111.941 75.92 111.941 75.92L114.421 76.64C114.421 76.64 114.961 74.4 117.561 74.4C120.141 74.4 119.941 76.72 119.941 76.72C113.981 77.4 112.341 79.98 112.341 81.84C112.341 83.22 113.381 84.28 115.021 84.28C118.341 84.28 119.941 79.8 119.941 79.8V81.7C119.941 83.66 121.181 84.28 122.421 84.28C124.281 84.28 125.021 83.28 125.021 83.28L124.541 81.5C124.541 81.5 124.101 82.5 123.121 82.5C122.481 82.5 122.221 82.04 122.241 81.34ZM114.881 81.34C114.881 80.36 115.481 78.54 119.941 77.4V78.1C119.981 78.94 118.061 82.5 115.941 82.5C115.281 82.5 114.881 82.1 114.881 81.34ZM129.223 77.42C129.223 76.78 129.883 74.4 131.423 74.4C132.083 74.4 132.403 74.9 132.403 75.86C132.403 77.14 131.983 78.42 131.983 78.42L134.463 77.7C134.463 77.7 134.863 76.76 134.863 75.34C134.863 73.88 134.283 72.62 132.443 72.62C129.383 72.62 129.003 76.2 129.003 76.2L127.983 72.9H126.823V84H129.223V77.42ZM146.558 81.34L146.678 76.68C146.738 74.4 145.118 72.62 141.798 72.62C137.338 72.62 136.258 75.92 136.258 75.92L138.738 76.64C138.738 76.64 139.278 74.4 141.878 74.4C144.458 74.4 144.258 76.72 144.258 76.72C138.298 77.4 136.658 79.98 136.658 81.84C136.658 83.22 137.698 84.28 139.338 84.28C142.658 84.28 144.258 79.8 144.258 79.8V81.7C144.258 83.66 145.498 84.28 146.738 84.28C148.598 84.28 149.338 83.28 149.338 83.28L148.858 81.5C148.858 81.5 148.418 82.5 147.438 82.5C146.798 82.5 146.538 82.04 146.558 81.34ZM139.198 81.34C139.198 80.36 139.798 78.54 144.258 77.4V78.1C144.298 78.94 142.378 82.5 140.258 82.5C139.598 82.5 139.198 82.1 139.198 81.34ZM160.1 84H162.5V77.12C162.5 74.32 161.14 72.62 157.84 72.62C153.6 72.62 153.32 76.2 153.32 76.2L152.3 72.9H151.14V84H153.54V77.4C153.54 76.72 153.94 74.4 156.96 74.4C158.96 74.4 160.1 75.3 160.1 77.16V84Z" fill="white"/>
<path d="M47 74.02C47 74.02 46.08 68.18 38.86 68.18C33.34 68.18 30.2 71.56 30.2 76.24C30.2 80.9 33.34 84.28 38.26 84.28C43.06 84.28 44.14 81 44.14 81V84H46.74V76.12H38.28V77.82H44.14C44.14 77.82 43.84 82.3 38.66 82.3C35.1 82.3 32.94 79.66 32.94 76.24C32.94 72.8 35.1 70.16 38.86 70.16C43.86 70.16 44.32 74.82 44.32 74.82L47 74.02ZM53.588 84.02C52.848 85.72 51.728 86.9 50.748 86.9C49.768 86.9 49.348 86.08 49.328 86.04L49.048 87.82C49.048 87.82 49.768 88.74 51.248 88.74C53.088 88.74 54.308 87.08 55.808 84L61.188 72.9H58.468L55.128 80.76L51.628 72.9H48.868L53.908 83.3L53.588 84.02ZM79.9028 84H82.3028V77.12C82.3028 74.32 81.3428 72.62 78.2428 72.62C75.1428 72.62 74.1428 74.72 73.8428 75.7C73.5228 73.76 72.4028 72.62 69.8828 72.62C65.8428 72.62 65.3628 76.2 65.3628 76.2L64.3428 72.9H63.1828V84H65.5828V77.4C65.5828 76.72 65.9828 74.4 68.8028 74.4C70.5428 74.4 71.4828 75.26 71.5428 77.02V84H73.9428V77.4C73.9428 76.72 74.3428 74.4 77.1628 74.4C78.9628 74.4 79.9028 75.3 79.9028 77.16V84Z" fill="#7270EE"/>
<defs>
<filter id="filter0_d_2_1122" x="-56" y="0" width="227" height="198" filterUnits="userSpaceOnUse" color-interpolation-filters="sRGB">
<feFlood flood-opacity="0" result="BackgroundImageFix"/>
<feColorMatrix in="SourceAlpha" type="matrix" values="0 0 0 0 0 0 0 0 0 0 0 0 0 0 0 0 0 0 127 0" result="hardAlpha"/>
<feOffset dy="20"/>
<feGaussianBlur stdDeviation="40"/>
<feComposite in2="hardAlpha" operator="out"/>
<feColorMatrix type="matrix" values="0 0 0 0 0.2 0 0 0 0 0.305882 0 0 0 0 0.482353 0 0 0 0.3 0"/>
<feBlend mode="normal" in2="BackgroundImageFix" result="effect1_dropShadow_2_1122"/>
<feBlend mode="normal" in="SourceGraphic" in2="effect1_dropShadow_2_1122" result="shape"/>
</filter>
</defs>
</svg>
