<svg width="189" height="187" viewBox="0 0 189 187" fill="none" xmlns="http://www.w3.org/2000/svg">
<g opacity="0.8">
<path d="M-179 156.793L-155.66 147.756L-133.125 156.793L-109.383 147.756L-90.0671 156.793L-65.52 147.756L-44.997 156.793L-24.474 147.756L-5.96307 156.793L16.1696 147.032" stroke="#EF703E" stroke-width="0.3"/>
<path d="M-6.36499 156.793L16.1701 147.032L39.5099 156.793L63.2522 147.756L82.5679 156.793L107.115 147.756L127.638 156.793L148.161 147.756L166.672 156.793L188 147.756" stroke="#EF703E" stroke-width="0.3"/>
<path d="M-179 186L-155.66 176.962L-133.125 186L-109.383 176.962L-90.0671 186L-65.52 176.962L-44.997 186L-24.474 176.962L-5.96307 186L16.1696 176.239" stroke="#EF703E" stroke-width="0.3"/>
<path d="M-6.36499 186L16.1701 176.239L39.5099 186L63.2522 176.962L82.5679 186L107.115 176.962L127.638 186L148.161 176.962L166.672 186L188 176.962" stroke="#EF703E" stroke-width="0.3"/>
<path d="M-179 150.952L-155.66 141.914L-133.125 150.952L-109.383 141.914L-90.0671 150.952L-65.52 141.914L-44.997 150.952L-24.474 141.914L-5.96307 150.952L16.1696 141.191" stroke="#EF703E" stroke-width="0.3"/>
<path d="M-6.36499 150.952L16.1701 141.191L39.5099 150.952L63.2522 141.914L82.5679 150.952L107.115 141.914L127.638 150.952L148.161 141.914L166.672 150.952L188 141.914" stroke="#EF703E" stroke-width="0.3"/>
<path d="M-179 180.159L-155.66 171.121L-133.125 180.159L-109.383 171.121L-90.0671 180.159L-65.52 171.121L-44.997 180.159L-24.474 171.121L-5.96307 180.159L16.1696 170.398" stroke="#EF703E" stroke-width="0.3"/>
<path d="M-6.36499 180.159L16.1701 170.398L39.5099 180.159L63.2522 171.121L82.5679 180.159L107.115 171.121L127.638 180.159L148.161 171.121L166.672 180.159L188 171.121" stroke="#EF703E" stroke-width="0.3"/>
<path d="M-179 145.111L-155.66 136.073L-133.125 145.111L-109.383 136.073L-90.0671 145.111L-65.52 136.073L-44.997 145.111L-24.474 136.073L-5.96307 145.111L16.1696 135.35" stroke="#EF703E" stroke-width="0.3"/>
<path d="M-6.36499 145.111L16.1701 135.35L39.5099 145.111L63.2522 136.073L82.5679 145.111L107.115 136.073L127.638 145.111L148.161 136.073L166.672 145.111L188 136.073" stroke="#EF703E" stroke-width="0.3"/>
<path d="M-179 174.317L-155.66 165.279L-133.125 174.317L-109.383 165.279L-90.0671 174.317L-65.52 165.279L-44.997 174.317L-24.474 165.279L-5.96307 174.317L16.1696 164.556" stroke="#EF703E" stroke-width="0.3"/>
<path d="M-6.36499 174.317L16.1701 164.556L39.5099 174.317L63.2522 165.279L82.5679 174.317L107.115 165.279L127.638 174.317L148.161 165.279L166.672 174.317L188 165.279" stroke="#EF703E" stroke-width="0.3"/>
<path d="M-179 139.269L-155.66 130.232L-133.125 139.269L-109.383 130.232L-90.0671 139.269L-65.52 130.232L-44.997 139.269L-24.474 130.232L-5.96307 139.269L16.1696 129.509" stroke="#EF703E" stroke-width="0.3"/>
<path d="M-6.36499 139.269L16.1701 129.509L39.5099 139.269L63.2522 130.232L82.5679 139.269L107.115 130.232L127.638 139.269L148.161 130.232L166.672 139.269L188 130.232" stroke="#EF703E" stroke-width="0.3"/>
<path d="M-179 168.476L-155.66 159.438L-133.125 168.476L-109.383 159.438L-90.0671 168.476L-65.52 159.438L-44.997 168.476L-24.474 159.438L-5.96307 168.476L16.1696 158.715" stroke="#EF703E" stroke-width="0.3"/>
<path d="M-6.36499 168.476L16.1701 158.715L39.5099 168.476L63.2522 159.438L82.5679 168.476L107.115 159.438L127.638 168.476L148.161 159.438L166.672 168.476L188 159.438" stroke="#EF703E" stroke-width="0.3"/>
<path d="M-179 133.428L-155.66 124.391L-133.125 133.428L-109.383 124.391L-90.0671 133.428L-65.52 124.391L-44.997 133.428L-24.474 124.391L-5.96307 133.428L16.1696 123.667" stroke="#EF703E" stroke-width="0.3"/>
<path d="M-6.36499 133.428L16.1701 123.667L39.5099 133.428L63.2522 124.391L82.5679 133.428L107.115 124.391L127.638 133.428L148.161 124.391L166.672 133.428L188 124.391" stroke="#EF703E" stroke-width="0.3"/>
<path d="M-179 162.635L-155.66 153.597L-133.125 162.635L-109.383 153.597L-90.0671 162.635L-65.52 153.597L-44.997 162.635L-24.474 153.597L-5.96307 162.635L16.1696 152.874" stroke="#EF703E" stroke-width="0.3"/>
<path d="M-6.36499 162.635L16.1701 152.874L39.5099 162.635L63.2522 153.597L82.5679 162.635L107.115 153.597L127.638 162.635L148.161 153.597L166.672 162.635L188 153.597" stroke="#EF703E" stroke-width="0.3"/>
<path d="M-179 127.587L-155.66 118.549L-133.125 127.587L-109.383 118.549L-90.0671 127.587L-65.52 118.549L-44.997 127.587L-24.474 118.549L-5.96307 127.587L16.1696 117.826" stroke="#EF703E" stroke-width="0.3"/>
<path d="M-6.36499 127.586L16.1701 117.826L39.5099 127.586L63.2522 118.549L82.5679 127.586L107.115 118.549L127.638 127.586L148.161 118.549L166.672 127.586L188 118.549" stroke="#EF703E" stroke-width="0.3"/>
<path d="M-179 121.746L-155.66 112.708L-133.125 121.746L-109.383 112.708L-90.0671 121.746L-65.52 112.708L-44.997 121.746L-24.474 112.708L-5.96307 121.746L16.1696 111.985" stroke="#EF703E" stroke-width="0.3"/>
<path d="M-6.36499 121.746L16.1701 111.985L39.5099 121.746L63.2522 112.708L82.5679 121.746L107.115 112.708L127.638 121.746L148.161 112.708L166.672 121.746L188 112.708" stroke="#EF703E" stroke-width="0.3"/>
<path d="M-179 115.904L-155.66 106.867L-133.125 115.904L-109.383 106.867L-90.0671 115.904L-65.52 106.867L-44.997 115.904L-24.474 106.867L-5.96307 115.904L16.1696 106.144" stroke="#EF703E" stroke-width="0.3"/>
<path d="M-6.36499 115.904L16.1701 106.144L39.5099 115.904L63.2522 106.867L82.5679 115.904L107.115 106.867L127.638 115.904L148.161 106.867L166.672 115.904L188 106.867" stroke="#EF703E" stroke-width="0.3"/>
<path d="M-179 110.063L-155.66 101.025L-133.125 110.063L-109.383 101.025L-90.0671 110.063L-65.52 101.025L-44.997 110.063L-24.474 101.025L-5.96307 110.063L16.1696 100.302" stroke="#EF703E" stroke-width="0.3"/>
<path d="M-6.36499 110.063L16.1701 100.302L39.5099 110.063L63.2522 101.025L82.5679 110.063L107.115 101.025L127.638 110.063L148.161 101.025L166.672 110.063L188 101.025" stroke="#EF703E" stroke-width="0.3"/>
<path d="M-179 104.222L-155.66 95.1838L-133.125 104.222L-109.383 95.1838L-90.0671 104.222L-65.52 95.1838L-44.997 104.222L-24.474 95.1838L-5.96307 104.222L16.1696 94.4608" stroke="#EF703E" stroke-width="0.3"/>
<path d="M-6.36499 104.222L16.1701 94.4607L39.5099 104.222L63.2522 95.1837L82.5679 104.222L107.115 95.1837L127.638 104.222L148.161 95.1837L166.672 104.222L188 95.1837" stroke="#EF703E" stroke-width="0.3"/>
<path d="M-179 98.38L-155.66 89.3422L-133.125 98.38L-109.383 89.3422L-90.0671 98.38L-65.52 89.3422L-44.997 98.38L-24.474 89.3422L-5.96307 98.38L16.1696 88.6191" stroke="#EF703E" stroke-width="0.3"/>
<path d="M-6.36499 98.38L16.1701 88.6191L39.5099 98.38L63.2522 89.3422L82.5679 98.38L107.115 89.3422L127.638 98.38L148.161 89.3422L166.672 98.38L188 89.3422" stroke="#EF703E" stroke-width="0.3"/>
<path d="M-179 92.5391L-155.66 83.5012L-133.125 92.5391L-109.383 83.5012L-90.0671 92.5391L-65.52 83.5012L-44.997 92.5391L-24.474 83.5012L-5.96307 92.5391L16.1696 82.7782" stroke="#EF703E" stroke-width="0.3"/>
<path d="M-6.36499 92.5391L16.1701 82.7782L39.5099 92.5391L63.2522 83.5012L82.5679 92.5391L107.115 83.5012L127.638 92.5391L148.161 83.5012L166.672 92.5391L188 83.5012" stroke="#EF703E" stroke-width="0.3"/>
<path d="M-179 86.6978L-155.66 77.6599L-133.125 86.6978L-109.383 77.6599L-90.0671 86.6978L-65.52 77.6599L-44.997 86.6978L-24.474 77.6599L-5.96307 86.6978L16.1696 76.9369" stroke="#EF703E" stroke-width="0.3"/>
<path d="M-6.36499 86.6977L16.1701 76.9368L39.5099 86.6977L63.2522 77.6598L82.5679 86.6977L107.115 77.6598L127.638 86.6977L148.161 77.6598L166.672 86.6977L188 77.6598" stroke="#EF703E" stroke-width="0.3"/>
<path d="M-179 80.8566L-155.66 71.8187L-133.125 80.8566L-109.383 71.8187L-90.0671 80.8566L-65.52 71.8187L-44.997 80.8566L-24.474 71.8187L-5.96307 80.8566L16.1696 71.0957" stroke="#EF703E" stroke-width="0.3"/>
<path d="M-6.36499 80.8566L16.1701 71.0957L39.5099 80.8566L63.2522 71.8187L82.5679 80.8566L107.115 71.8187L127.638 80.8566L148.161 71.8187L166.672 80.8566L188 71.8187" stroke="#EF703E" stroke-width="0.3"/>
<path d="M-179 75.0154L-155.66 65.9775L-133.125 75.0154L-109.383 65.9775L-90.0671 75.0154L-65.52 65.9775L-44.997 75.0154L-24.474 65.9775L-5.96307 75.0154L16.1696 65.2545" stroke="#EF703E" stroke-width="0.3"/>
<path d="M-6.36499 75.0152L16.1701 65.2543L39.5099 75.0152L63.2522 65.9773L82.5679 75.0152L107.115 65.9773L127.638 75.0152L148.161 65.9773L166.672 75.0152L188 65.9773" stroke="#EF703E" stroke-width="0.3"/>
<path d="M-179 69.1739L-155.66 60.136L-133.125 69.1739L-109.383 60.136L-90.0671 69.1739L-65.52 60.136L-44.997 69.1739L-24.474 60.136L-5.96307 69.1739L16.1696 59.413" stroke="#EF703E" stroke-width="0.3"/>
<path d="M-6.36499 69.1737L16.1701 59.4128L39.5099 69.1737L63.2522 60.1359L82.5679 69.1737L107.115 60.1359L127.638 69.1737L148.161 60.1359L166.672 69.1737L188 60.1359" stroke="#EF703E" stroke-width="0.3"/>
<path d="M-179 63.3327L-155.66 54.2948L-133.125 63.3327L-109.383 54.2948L-90.0671 63.3327L-65.52 54.2948L-44.997 63.3327L-24.474 54.2948L-5.96307 63.3327L16.1696 53.5718" stroke="#EF703E" stroke-width="0.3"/>
<path d="M-6.36499 63.3327L16.1701 53.5718L39.5099 63.3327L63.2522 54.2948L82.5679 63.3327L107.115 54.2948L127.638 63.3327L148.161 54.2948L166.672 63.3327L188 54.2948" stroke="#EF703E" stroke-width="0.3"/>
<path d="M-179 57.4913L-155.66 48.4534L-133.125 57.4913L-109.383 48.4534L-90.0671 57.4913L-65.52 48.4534L-44.997 57.4913L-24.474 48.4534L-5.96307 57.4913L16.1696 47.7303" stroke="#EF703E" stroke-width="0.3"/>
<path d="M-6.36499 57.4913L16.1701 47.7303L39.5099 57.4913L63.2522 48.4534L82.5679 57.4913L107.115 48.4534L127.638 57.4913L148.161 48.4534L166.672 57.4913L188 48.4534" stroke="#EF703E" stroke-width="0.3"/>
<path d="M-179 51.6498L-155.66 42.6119L-133.125 51.6498L-109.383 42.6119L-90.0671 51.6498L-65.52 42.6119L-44.997 51.6498L-24.474 42.6119L-5.96307 51.6498L16.1696 41.8889" stroke="#EF703E" stroke-width="0.3"/>
<path d="M-6.36499 51.6498L16.1701 41.8889L39.5099 51.6498L63.2522 42.6119L82.5679 51.6498L107.115 42.6119L127.638 51.6498L148.161 42.6119L166.672 51.6498L188 42.6119" stroke="#EF703E" stroke-width="0.3"/>
<path d="M-179 45.8088L-155.66 36.7709L-133.125 45.8088L-109.383 36.7709L-90.0671 45.8088L-65.52 36.7709L-44.997 45.8088L-24.474 36.7709L-5.96307 45.8088L16.1696 36.0479" stroke="#EF703E" stroke-width="0.3"/>
<path d="M-6.36499 45.8088L16.1701 36.0479L39.5099 45.8088L63.2522 36.7709L82.5679 45.8088L107.115 36.7709L127.638 45.8088L148.161 36.7709L166.672 45.8088L188 36.7709" stroke="#EF703E" stroke-width="0.3"/>
<path d="M-179 39.9673L-155.66 30.9295L-133.125 39.9673L-109.383 30.9295L-90.0671 39.9673L-65.52 30.9295L-44.997 39.9673L-24.474 30.9295L-5.96307 39.9673L16.1696 30.2064" stroke="#EF703E" stroke-width="0.3"/>
<path d="M-6.36499 39.9673L16.1701 30.2064L39.5099 39.9673L63.2522 30.9295L82.5679 39.9673L107.115 30.9295L127.638 39.9673L148.161 30.9295L166.672 39.9673L188 30.9295" stroke="#EF703E" stroke-width="0.3"/>
<path d="M-179 34.1263L-155.66 25.0884L-133.125 34.1263L-109.383 25.0884L-90.0671 34.1263L-65.52 25.0884L-44.997 34.1263L-24.474 25.0884L-5.96307 34.1263L16.1696 24.3654" stroke="#EF703E" stroke-width="0.3"/>
<path d="M-6.36499 34.1263L16.1701 24.3654L39.5099 34.1263L63.2522 25.0884L82.5679 34.1263L107.115 25.0884L127.638 34.1263L148.161 25.0884L166.672 34.1263L188 25.0884" stroke="#EF703E" stroke-width="0.3"/>
<path d="M-179 28.2848L-155.66 19.247L-133.125 28.2848L-109.383 19.247L-90.0671 28.2848L-65.52 19.247L-44.997 28.2848L-24.474 19.247L-5.96307 28.2848L16.1696 18.5239" stroke="#EF703E" stroke-width="0.3"/>
<path d="M-6.36499 28.2848L16.1701 18.5239L39.5099 28.2848L63.2522 19.247L82.5679 28.2848L107.115 19.247L127.638 28.2848L148.161 19.247L166.672 28.2848L188 19.247" stroke="#EF703E" stroke-width="0.3"/>
<path d="M-179 22.4435L-155.66 13.4056L-133.125 22.4435L-109.383 13.4056L-90.0671 22.4435L-65.52 13.4056L-44.997 22.4435L-24.474 13.4056L-5.96307 22.4435L16.1696 12.6826" stroke="#EF703E" stroke-width="0.3"/>
<path d="M-6.36499 22.4434L16.1701 12.6825L39.5099 22.4434L63.2522 13.4055L82.5679 22.4434L107.115 13.4055L127.638 22.4434L148.161 13.4055L166.672 22.4434L188 13.4055" stroke="#EF703E" stroke-width="0.3"/>
<path d="M-179 16.6018L-155.66 7.56397L-133.125 16.6018L-109.383 7.56397L-90.0671 16.6018L-65.52 7.56397L-44.997 16.6018L-24.474 7.56397L-5.96307 16.6018L16.1696 6.84094" stroke="#EF703E" stroke-width="0.3"/>
<path d="M-6.36499 16.6018L16.1701 6.84094L39.5099 16.6018L63.2522 7.56397L82.5679 16.6018L107.115 7.56397L127.638 16.6018L148.161 7.56397L166.672 16.6018L188 7.56397" stroke="#EF703E" stroke-width="0.3"/>
<path d="M-179 10.7609L-155.66 1.72303L-133.125 10.7609L-109.382 1.72303L-90.0666 10.7609L-65.5195 1.72303L-44.9965 10.7609L-24.4735 1.72303L-5.96258 10.7609L16.17 1" stroke="#EF703E" stroke-width="0.3"/>
<path d="M-6.3645 10.7609L16.1705 1L39.5104 10.7609L63.2527 1.72303L82.5684 10.7609L107.116 1.72303L127.639 10.7609L148.162 1.72303L166.672 10.7609L188 1.72303" stroke="#EF703E" stroke-width="0.3"/>
</g>
</svg>
